<svg width="30" height="22" viewBox="0 0 30 22" fill="none" xmlns="http://www.w3.org/2000/svg">
<path d="M30 16.1562C30 19.0039 28.4189 21.3125 25.3125 21.3125H4.6875C1.58109 21.3125 0 19.0039 0 16.1562V5.84375C0 2.99609 1.58109 0.6875 4.6875 0.6875H25.3125C28.4189 0.6875 30 2.99609 30 5.84375V16.1562Z" fill="#128807"/>
<path d="M26.7844 11.3703L15.0703 19.6016L3.35578 11.3703L15.0703 3.13907L26.7844 11.3703Z" fill="#F9CB38"/>
<path fill-rule="evenodd" clip-rule="evenodd" d="M19.6922 12.8038C19.1588 14.6164 17.4895 15.9964 15.5995 16.1839C13.0744 16.4366 10.8652 14.8316 10.328 12.3505C10.169 11.6214 10.1893 10.8646 10.387 10.145C10.4606 10.0653 10.5623 10.0461 10.6636 10.0321C11.4022 9.92951 12.1488 9.89702 12.8934 9.93502C13.688 9.98002 14.4759 10.0902 15.2419 10.3067C16.028 10.5294 16.7892 10.82 17.5078 11.2063C18.0486 11.4936 18.5651 11.8244 19.0523 12.1953C19.2173 12.3233 19.3856 12.4489 19.5441 12.5853C19.6148 12.6463 19.6702 12.7119 19.6917 12.8038" fill="#002776"/>
<path fill-rule="evenodd" clip-rule="evenodd" d="M10.6519 9.41141C11.257 8.05907 12.2775 7.1586 13.688 6.73579C16.5286 5.88407 19.4428 7.76141 19.8652 10.6892C19.9308 11.1416 19.9336 11.5953 19.8642 12.0486C19.7925 12.0753 19.7391 12.0374 19.6898 11.9966C19.175 11.5759 18.6258 11.1992 18.0478 10.8706C17.6028 10.6181 17.1404 10.3975 16.6641 10.2106C16.5797 10.1774 16.4737 10.16 16.4447 10.047C16.4752 9.99266 16.5136 9.94532 16.5595 9.90126C16.5759 9.88438 16.5998 9.86798 16.5778 9.83985C16.5703 9.83095 16.5548 9.83095 16.5417 9.83235C16.5066 9.8361 16.5113 9.86048 16.5127 9.88626C16.5155 9.97016 16.4667 10.0241 16.4025 10.0672C16.2886 10.093 16.1794 10.0588 16.087 10.0095C15.8227 9.87079 15.5302 9.82345 15.2503 9.7461C14.8139 9.62751 14.3658 9.56048 13.9186 9.49063C13.5617 9.43365 13.2024 9.39267 12.8419 9.36782C12.5137 9.34485 12.1795 9.34813 11.8491 9.37063C11.4886 9.39595 11.1272 9.42126 10.7686 9.46438C10.7461 9.46766 10.7232 9.46442 10.7025 9.45503C10.6818 9.44563 10.6642 9.4305 10.6519 9.41141" fill="#002776"/>
<path fill-rule="evenodd" clip-rule="evenodd" d="M16.4484 10.018C16.4466 10.0752 16.4977 10.0677 16.5286 10.0799C17.7391 10.5508 18.8648 11.2157 19.8614 12.0486C19.8326 12.3058 19.7757 12.559 19.6917 12.8038C19.1053 12.3172 18.5048 11.8536 17.8406 11.4749C15.7411 10.2791 13.493 9.80517 11.0897 10.0592C10.8553 10.0831 10.6209 10.115 10.3866 10.1436C10.447 9.89002 10.5239 9.64111 10.65 9.41048C12.4045 9.17377 14.1286 9.3083 15.8203 9.83189C16.0303 9.89705 16.2305 10.002 16.4545 10.0217L16.4484 10.0166" fill="#FEFEFE"/>
<path fill-rule="evenodd" clip-rule="evenodd" d="M18.6328 13.0391C18.4917 13.0241 18.645 13.197 18.5025 13.1933C18.3783 13.1914 18.3717 13.092 18.3108 13.0367C18.3577 12.988 18.4406 12.9781 18.4669 12.9022C18.4847 12.9823 18.5602 12.9992 18.6328 13.0391Z" fill="#D9DFEA"/>
<path fill-rule="evenodd" clip-rule="evenodd" d="M13.3097 13.9063C13.177 13.9217 13.2881 14.0661 13.177 14.0685C13.065 14.0708 13.0073 13.9878 12.9848 13.9021C12.9769 13.8777 13.0847 13.8233 13.1377 13.783C13.1442 13.8678 13.2323 13.8641 13.3097 13.9063Z" fill="#E9ECF3"/>
<path fill-rule="evenodd" clip-rule="evenodd" d="M15.0656 13.6452C14.8814 13.7642 15.03 13.4952 14.9217 13.5214C14.9569 13.4652 15.0562 13.4783 15.0628 13.392C15.1097 13.4408 15.1495 13.497 15.2241 13.5073C15.1177 13.4928 15.2334 13.7291 15.0656 13.6452" fill="#EDEFF5"/>
<path fill-rule="evenodd" clip-rule="evenodd" d="M11.2594 10.4867C11.2153 10.5706 11.182 10.6644 11.0484 10.6081C10.98 10.5795 11.0531 10.4858 10.9711 10.4769L11.123 10.3433C11.1333 10.3653 11.1455 10.3864 11.1558 10.4084C11.168 10.4642 11.2791 10.3902 11.2594 10.4867" fill="#F0F2F6"/>
<path fill-rule="evenodd" clip-rule="evenodd" d="M11.6845 12.5234C11.6147 12.5455 11.6648 12.7292 11.5148 12.6491C11.4998 12.6416 11.4342 12.6777 11.4464 12.6566C11.4858 12.5797 11.3977 12.5422 11.4112 12.4808C11.4933 12.5164 11.4886 12.3664 11.5725 12.4067C11.5786 12.4114 11.5786 12.4302 11.5828 12.4423C11.5917 12.5005 11.7052 12.4278 11.6845 12.5234Z" fill="#ECEFF4"/>
<path fill-rule="evenodd" clip-rule="evenodd" d="M10.9472 13.0663C10.8033 13.1164 10.9106 12.9425 10.8281 12.9439C10.8666 12.9116 10.9097 12.8511 10.9481 12.8535C10.9941 12.8558 11.0363 12.9125 11.0784 12.9449C11.0156 12.966 11.0817 13.1361 10.9472 13.0663" fill="#D9DFEA"/>
<path fill-rule="evenodd" clip-rule="evenodd" d="M16.5094 14.7252C16.357 14.7946 16.5052 14.5897 16.4034 14.6164C16.3931 14.5381 16.5202 14.5855 16.5042 14.503L16.6416 14.6131C16.5858 14.6385 16.6416 14.7978 16.5094 14.7252" fill="#D8DEEA"/>
<path fill-rule="evenodd" clip-rule="evenodd" d="M17.4844 14.6122C17.3583 14.6647 17.4356 14.495 17.3677 14.4781C17.4136 14.4486 17.4619 14.4172 17.5069 14.3867C17.5106 14.4561 17.6058 14.4308 17.6161 14.4922C17.5453 14.4964 17.6189 14.6492 17.4844 14.6122V14.6122ZM18.3609 13.9813C18.2175 14.0539 18.3234 13.8631 18.2414 13.8711C18.2578 13.8102 18.352 13.8331 18.3577 13.7628L18.4922 13.8636C18.4102 13.8613 18.5109 14.0623 18.3609 13.9813" fill="#DCE1EC"/>
<path fill-rule="evenodd" clip-rule="evenodd" d="M12.5545 13.1061C12.4045 13.191 12.5025 13.0011 12.4331 12.9974C12.4402 12.9275 12.5461 12.9575 12.5508 12.8835C12.5648 12.9519 12.6558 12.9322 12.6755 12.9936C12.5859 12.9805 12.7134 13.1956 12.5545 13.1061" fill="#D4DAE7"/>
<path fill-rule="evenodd" clip-rule="evenodd" d="M13.1625 11.682C13.0777 11.6764 13.1864 11.5428 13.0823 11.5513C13.1002 11.4763 13.1803 11.4917 13.2244 11.4528C13.2469 11.5002 13.3106 11.5109 13.3139 11.5789C13.3214 11.7031 13.2113 11.6389 13.1625 11.682" fill="#F2F4F7"/>
<path fill-rule="evenodd" clip-rule="evenodd" d="M15.6328 12.672C15.503 12.7466 15.5714 12.5802 15.5114 12.5619C15.5522 12.5281 15.5916 12.4939 15.6328 12.4592C15.6356 12.5286 15.7683 12.5131 15.7308 12.5666C15.7083 12.5984 15.7809 12.7442 15.6328 12.672Z" fill="#E6E9F1"/>
<path fill-rule="evenodd" clip-rule="evenodd" d="M15.0516 12.2544C14.9034 12.2694 15.0562 12.1349 14.9602 12.1381C14.9977 12.103 15.0337 12.043 15.0759 12.0392C15.1125 12.0355 15.1547 12.095 15.1945 12.1278C15.1425 12.178 15.1505 12.3074 15.0516 12.2544" fill="#EAEDF3"/>
<path fill-rule="evenodd" clip-rule="evenodd" d="M18.6478 13.3484C18.6783 13.4291 18.7383 13.4399 18.7852 13.4684C18.7373 13.5224 18.7186 13.6049 18.6192 13.6049C18.5175 13.6058 18.5864 13.5285 18.5634 13.4924C18.5067 13.4024 18.7163 13.4783 18.6478 13.3484" fill="#E4E8F0"/>
<path fill-rule="evenodd" clip-rule="evenodd" d="M17.5866 14.9816C17.5509 15.0345 17.5753 15.0852 17.4806 15.087C17.3723 15.0889 17.407 15.0097 17.4023 14.9853C17.3934 14.945 17.4553 14.9066 17.4909 14.9145C17.5219 14.9202 17.5819 14.9375 17.5866 14.9816Z" fill="#CED5E4"/>
<path fill-rule="evenodd" clip-rule="evenodd" d="M12.5222 13.4797C12.4448 13.4886 12.5091 13.5898 12.4111 13.5866C12.3216 13.5837 12.3347 13.5233 12.3248 13.4867C12.3094 13.4356 12.3848 13.437 12.4017 13.3986C12.4373 13.4234 12.4734 13.4483 12.5222 13.4797" fill="#DAE0EB"/>
<path fill-rule="evenodd" clip-rule="evenodd" d="M17.3766 14.015C17.4098 13.9902 17.4431 13.9672 17.4783 13.9438C17.4811 13.9958 17.5931 13.9658 17.5556 14.0324C17.5402 14.0591 17.5781 14.1322 17.4811 14.1256C17.3939 14.1195 17.4145 14.0586 17.3766 14.015Z" fill="#D8DEE9"/>
<path fill-rule="evenodd" clip-rule="evenodd" d="M17.0203 14.1758C17.0034 14.2681 16.9509 14.2831 16.8933 14.2939C16.7953 14.3103 16.8689 14.2367 16.853 14.2086C16.8117 14.1383 16.9158 14.1519 16.928 14.106C16.9552 14.1416 17.0175 14.1406 17.0203 14.1758Z" fill="#CBD2E3"/>
<path fill-rule="evenodd" clip-rule="evenodd" d="M16.4719 11.1359C16.4391 11.1514 16.4827 11.2297 16.4123 11.2072C16.3589 11.1889 16.2933 11.1636 16.298 11.098C16.2998 11.0727 16.3636 11.0516 16.3992 11.0295C16.4053 11.0769 16.5066 11.0614 16.4719 11.1359Z" fill="#D1D8E6"/>
<path fill-rule="evenodd" clip-rule="evenodd" d="M19.1245 13.1919C19.0364 13.2266 19.0762 13.1539 19.0608 13.1328C19.0017 13.0527 19.1184 13.0644 19.1245 13.0166C19.1606 13.0405 19.2309 13.0677 19.2281 13.0883C19.2261 13.1151 19.2145 13.1403 19.1955 13.1593C19.1765 13.1783 19.1513 13.1898 19.1245 13.1919" fill="#DADFEA"/>
<path fill-rule="evenodd" clip-rule="evenodd" d="M14.5922 12.4766C14.5922 12.5309 14.7019 12.5094 14.6648 12.5773C14.6498 12.605 14.6817 12.6791 14.6058 12.6636C14.5481 12.6519 14.49 12.6181 14.4881 12.5609C14.4881 12.5342 14.5547 12.5056 14.5922 12.4766Z" fill="#CAD2E2"/>
<path fill-rule="evenodd" clip-rule="evenodd" d="M16.0922 14.1725C16.0491 14.1524 16.0472 14.0956 16.05 14.0685C16.0547 14.0324 16.103 13.9836 16.1442 14.0033C16.1695 14.0155 16.2413 14.0085 16.2239 14.0741C16.208 14.1369 16.1452 14.1458 16.0922 14.1725Z" fill="#D0D7E5"/>
<path fill-rule="evenodd" clip-rule="evenodd" d="M17.9062 14.09C17.9081 14.0895 17.9409 14.0441 17.978 14.0431C18.0047 14.0422 18.0319 14.0975 18.0605 14.1284C18.022 14.1392 18.0548 14.21 17.9789 14.2091C17.9105 14.2077 17.9105 14.1767 17.9062 14.09Z" fill="#EFF2F6"/>
<path fill-rule="evenodd" clip-rule="evenodd" d="M14.8903 12.9031C14.8777 12.9538 14.8777 12.9852 14.8327 12.9842C14.7867 12.9833 14.7642 12.9664 14.7652 12.9195C14.7652 12.8825 14.7895 12.8567 14.8172 12.8591C14.8491 12.8614 14.8945 12.8703 14.8903 12.9031" fill="#CCD4E3"/>
<path fill-rule="evenodd" clip-rule="evenodd" d="M12.0159 12.1738C12.0384 12.1981 12.0642 12.2174 12.0741 12.2422C12.0825 12.2628 12.0694 12.2942 12.0403 12.2975C12.008 12.3003 11.9733 12.2994 11.963 12.2591C11.9536 12.2197 11.9878 12.2056 12.0159 12.1738Z" fill="#E0E5EE"/>
<path fill-rule="evenodd" clip-rule="evenodd" d="M11.6845 12.5235C11.6719 12.4696 11.5884 12.5038 11.5828 12.4419C11.6006 12.4888 11.7398 12.3842 11.6845 12.5235Z" fill="#7085B1"/>
<path fill-rule="evenodd" clip-rule="evenodd" d="M11.2594 10.4867C11.2491 10.4291 11.1605 10.4745 11.1558 10.4084C11.1806 10.4478 11.3062 10.3545 11.2594 10.4867Z" fill="#5C75A7"/>
<path fill-rule="evenodd" clip-rule="evenodd" d="M16.4578 10.0231C16.4667 9.98752 16.4953 9.92939 16.4841 9.91861C16.3313 9.78268 16.5352 9.75971 16.5656 9.73205C16.6214 9.67814 16.6125 9.90549 16.7597 9.76158C16.6805 9.93736 16.5745 9.98799 16.4527 10.018L16.4578 10.0231Z" fill="#E7EAF2"/>
<path fill-rule="evenodd" clip-rule="evenodd" d="M11.9395 9.87736C11.7905 9.86283 11.9231 9.66877 11.8908 9.55627C11.8505 9.41096 11.9564 9.41283 12.0595 9.41236C12.2194 9.41143 12.3098 9.47893 12.3098 9.64768C12.3094 9.81361 12.2325 9.87924 11.9395 9.87736Z" fill="#15A24A"/>
<path fill-rule="evenodd" clip-rule="evenodd" d="M17.6348 10.8139C17.602 10.9142 17.4806 10.977 17.46 11.1008C17.4581 11.1172 17.4112 11.1139 17.4023 11.0661C17.3648 10.842 17.363 10.8425 17.1975 10.9625C17.1844 10.9723 17.1614 10.9812 17.1487 10.977C17.1244 10.9662 17.1145 10.9419 17.1291 10.9142C17.1839 10.8073 17.2355 10.6977 17.2969 10.5941C17.3381 10.5256 17.3883 10.5828 17.4286 10.6025C17.5172 10.6461 17.6264 10.6709 17.6348 10.8139" fill="#13A248"/>
<path fill-rule="evenodd" clip-rule="evenodd" d="M18.0544 11.1786C17.9681 11.2133 17.9264 11.1481 17.8711 11.1247C17.8336 11.1088 17.7984 11.0938 17.7731 11.1355C17.7455 11.1795 17.7731 11.2049 17.8111 11.2245C17.8402 11.2391 17.8711 11.2503 17.8927 11.2733C17.9306 11.3131 18.0497 11.3024 18.0014 11.3872C17.9634 11.4547 17.8997 11.376 17.8575 11.3511C17.7848 11.3066 17.6409 11.2822 17.6564 11.2049C17.6803 11.0806 17.7511 10.9456 17.8453 10.8603C17.9208 10.7919 18.0042 10.9213 18.0891 10.9536C18.1256 10.9672 18.188 10.9794 18.1772 11.037C18.1669 11.0966 18.1228 11.0619 18.0891 11.0539C18.0098 11.0356 17.933 10.9016 17.8706 10.9944C17.8331 11.0497 17.9873 11.0727 18.0361 11.1336C18.0436 11.1425 18.0455 11.1547 18.0544 11.1786V11.1786ZM19.0645 11.8414C19.0786 11.9511 19.0341 12.0256 18.9192 12.0069C18.8002 11.9872 18.7097 11.9145 18.6891 11.7842C18.6872 11.7711 18.7031 11.7444 18.7163 11.7406C18.7238 11.7382 18.7318 11.7374 18.7397 11.7383C18.7476 11.7393 18.7552 11.7419 18.7619 11.7461C18.7687 11.7503 18.7744 11.756 18.7788 11.7626C18.7831 11.7693 18.7859 11.7768 18.787 11.7847C18.802 11.8742 18.8489 11.9141 18.9431 11.916C18.9614 11.7692 18.6966 11.7022 18.8489 11.5499C18.9253 11.4735 19.0186 11.5367 19.0852 11.5981C19.1466 11.6539 19.2216 11.7153 19.1095 11.795C19.0936 11.7866 19.072 11.773 19.0603 11.7824C19.0364 11.7983 19.0598 11.8213 19.0645 11.8414Z" fill="#11A147"/>
<path fill-rule="evenodd" clip-rule="evenodd" d="M15.8269 10.4455C15.7711 10.4141 15.7739 10.3841 15.7828 10.3512C15.8006 10.2814 15.7645 10.2448 15.7008 10.2252C15.637 10.2045 15.5878 10.2073 15.5705 10.287C15.5644 10.3227 15.5456 10.3475 15.5067 10.3344C15.4617 10.318 15.4842 10.2814 15.4927 10.2547C15.5105 10.1933 15.5264 10.1314 15.5545 10.0728C15.5798 10.0142 15.562 9.90687 15.6544 9.9139C15.7523 9.92093 15.8583 9.94437 15.9328 10.0255C15.9661 10.0611 15.9797 10.1225 15.9525 10.1492C15.8733 10.2308 15.8798 10.3461 15.8269 10.4455Z" fill="#0FA046"/>
<path fill-rule="evenodd" clip-rule="evenodd" d="M12.9342 9.84877C12.7828 9.90596 12.6633 9.87268 12.5466 9.87502C12.4936 9.87643 12.4889 9.83658 12.4889 9.79627C12.4927 9.75174 12.4927 9.70674 12.4927 9.66221C12.4983 9.41518 12.5859 9.3519 12.8288 9.4208C12.8559 9.4283 12.8817 9.43299 12.8836 9.46346C12.8836 9.50565 12.8531 9.51315 12.8156 9.51221C12.8105 9.51127 12.8044 9.50987 12.7978 9.5108C12.7252 9.52862 12.5948 9.44658 12.5925 9.55533C12.5897 9.63877 12.7317 9.57971 12.8044 9.60784C12.8147 9.61205 12.8259 9.62143 12.8419 9.63315C12.7959 9.71612 12.7195 9.66971 12.6605 9.67955C12.6253 9.68518 12.5794 9.66971 12.5742 9.7269C12.5677 9.7944 12.6145 9.79112 12.6605 9.7958C12.7388 9.80518 12.8236 9.77565 12.9342 9.84877" fill="#0B9F43"/>
<path fill-rule="evenodd" clip-rule="evenodd" d="M11.6897 9.88439C11.6081 9.86657 11.6194 9.8197 11.6053 9.78689C11.5809 9.72642 11.5327 9.72642 11.4797 9.73064C11.4192 9.73626 11.3864 9.7597 11.3916 9.82673C11.3953 9.85954 11.4084 9.91251 11.3475 9.90501C11.295 9.89845 11.31 9.84735 11.3072 9.81267C11.3025 9.75595 11.2969 9.69782 11.3025 9.64157C11.31 9.57876 11.25 9.48267 11.3405 9.46017C11.4338 9.43579 11.5416 9.41845 11.6386 9.46485C11.6808 9.48501 11.7141 9.53423 11.6986 9.57407C11.663 9.67439 11.6911 9.7761 11.6897 9.88439" fill="#079D3F"/>
<path fill-rule="evenodd" clip-rule="evenodd" d="M10.7002 9.72501C10.7152 9.59798 10.7709 9.49486 10.9102 9.49954C11.0438 9.50376 11.115 9.59657 11.115 9.73017C11.115 9.86282 11.0531 9.95423 10.912 9.95329C10.7686 9.95236 10.7198 9.84829 10.7002 9.72501Z" fill="#15A24A"/>
<path fill-rule="evenodd" clip-rule="evenodd" d="M19.6237 12.1063C19.6106 12.2324 19.5483 12.3275 19.4044 12.3402C19.2717 12.3509 19.2014 12.275 19.1911 12.1503C19.1794 12.0242 19.3031 11.9038 19.4292 11.9047C19.5398 11.9056 19.6209 11.9858 19.6237 12.1063Z" fill="#11A147"/>
<path fill-rule="evenodd" clip-rule="evenodd" d="M16.9922 10.6391C17.0981 10.7244 16.9697 10.7806 16.965 10.8524C16.8769 10.8116 16.7667 10.828 16.6955 10.7506C16.6195 10.6681 16.6336 10.5749 16.6833 10.4839C16.7381 10.3878 16.8225 10.3466 16.9261 10.3831C17.0208 10.4169 17.0916 10.4806 17.0456 10.6006C16.973 10.6138 16.9134 10.5181 16.8112 10.5824C16.8792 10.6138 16.9608 10.5702 16.9922 10.6391" fill="#0C9F43"/>
<path fill-rule="evenodd" clip-rule="evenodd" d="M14.4422 9.67343C14.3803 9.74609 14.3348 9.71797 14.2922 9.7189C14.2509 9.7189 14.2069 9.68468 14.1558 9.72734C14.2017 9.80234 14.3128 9.75406 14.3559 9.82859C14.3498 9.83937 14.347 9.8539 14.3391 9.8614C14.2772 9.91015 14.1783 9.79203 14.1398 9.88953C14.1047 9.97344 14.197 9.94437 14.2369 9.95843C14.2819 9.97625 14.3377 9.96968 14.392 10.0306C14.2659 10.0859 14.1155 10.0602 14.0634 9.99922C13.9814 9.90312 14.0391 9.7325 14.1014 9.64719C14.175 9.5464 14.3095 9.64484 14.4422 9.67343" fill="#19A44D"/>
<path fill-rule="evenodd" clip-rule="evenodd" d="M15.2414 10.0813C15.135 10.07 15.0141 9.99501 14.9836 10.1703C14.9827 10.1759 14.9456 10.1839 14.9344 10.1764C14.9217 10.1694 14.9147 10.1431 14.917 10.1281C14.9447 10.017 14.9587 9.89798 15.008 9.79814C15.0652 9.68564 15.1622 9.78079 15.2423 9.79157C15.338 9.80423 15.3909 9.86236 15.3806 9.96314C15.3712 10.0499 15.3056 10.0733 15.2414 10.0813" fill="#0D9F44"/>
<path fill-rule="evenodd" clip-rule="evenodd" d="M16.5094 10.3499C16.4991 10.491 16.4297 10.5885 16.2886 10.5927C16.1625 10.5974 16.0917 10.5088 16.0945 10.3831C16.0983 10.2472 16.1644 10.1488 16.3111 10.1446C16.4456 10.1399 16.4977 10.2303 16.5094 10.3499" fill="#0FA046"/>
<path fill-rule="evenodd" clip-rule="evenodd" d="M13.3495 9.8408C13.3341 9.87408 13.3214 9.92142 13.2769 9.91064C13.1995 9.89236 13.2342 9.81783 13.2155 9.76908C13.1583 9.7133 13.1733 9.79017 13.1555 9.80423C13.1489 9.83892 13.1648 9.89189 13.118 9.89892C13.0603 9.90595 13.0739 9.85064 13.0753 9.81783C13.08 9.74939 13.0809 9.67767 13.0997 9.61205C13.1161 9.5558 13.0566 9.4522 13.1686 9.45127C13.2675 9.4508 13.2459 9.55158 13.2586 9.61205C13.2717 9.68142 13.2787 9.71095 13.3355 9.64205C13.3941 9.62658 13.4062 9.66923 13.4198 9.71048C13.4273 9.77048 13.4006 9.8122 13.3495 9.8408" fill="#0EA044"/>
<path fill-rule="evenodd" clip-rule="evenodd" d="M18.3422 11.5625C18.3769 11.5625 18.412 11.6085 18.4458 11.5691C18.4716 11.5395 18.4486 11.5105 18.4256 11.4866C18.4087 11.4683 18.3909 11.451 18.375 11.4313C18.3272 11.3736 18.2602 11.3183 18.3262 11.2349C18.3862 11.1585 18.4561 11.1772 18.5255 11.2255C18.5381 11.2499 18.5339 11.2733 18.5208 11.2953C18.4697 11.3755 18.5648 11.4242 18.563 11.4927C18.5775 11.5569 18.5869 11.6216 18.5161 11.6586C18.428 11.7055 18.36 11.6624 18.2953 11.6061C18.2883 11.5691 18.3019 11.5508 18.3422 11.5625" fill="#10A146"/>
<path fill-rule="evenodd" clip-rule="evenodd" d="M16.9922 10.6391C16.9561 10.6644 16.8834 10.5824 16.8858 10.6442C16.8905 10.7539 16.8356 10.7441 16.7845 10.7117C16.7156 10.6691 16.7119 10.5959 16.7555 10.5284C16.7977 10.4624 16.8572 10.4239 16.9294 10.4778C16.9734 10.5102 17.0067 10.5589 17.0447 10.6006L16.9922 10.6391" fill="#ECF7F0"/>
<path fill-rule="evenodd" clip-rule="evenodd" d="M13.3805 9.72969C13.3668 9.70075 13.3517 9.67244 13.3355 9.64485C13.3519 9.60313 13.3669 9.56094 13.3866 9.52063C13.4044 9.48266 13.4353 9.46157 13.4789 9.47563C13.5277 9.49204 13.5239 9.52954 13.5211 9.56891C13.5108 9.68376 13.5014 9.79813 13.4925 9.91297C13.4241 9.95657 13.4067 9.91672 13.3955 9.85766C13.387 9.81501 13.4091 9.76907 13.3805 9.72969Z" fill="#17A34C"/>
<path fill-rule="evenodd" clip-rule="evenodd" d="M18.5644 11.4922C18.5222 11.4491 18.4772 11.4083 18.4378 11.3623C18.3919 11.308 18.4097 11.2747 18.4781 11.2658C18.577 11.2878 18.6375 11.3356 18.6084 11.4491C18.5948 11.4631 18.5798 11.4781 18.5644 11.4922" fill="#D7EFE0"/>
<path fill-rule="evenodd" clip-rule="evenodd" d="M18.6084 11.4491C18.563 11.39 18.5508 11.3056 18.4781 11.2658L18.5269 11.225C18.6056 11.2808 18.7495 11.3127 18.6084 11.4491Z" fill="#2BAB5B"/>
<path fill-rule="evenodd" clip-rule="evenodd" d="M19.0645 11.8414C19.0584 11.8377 19.0505 11.8358 19.0477 11.8306C19.0102 11.7613 18.8859 11.6989 18.9281 11.6375C18.9811 11.5634 19.0364 11.6511 19.0655 11.7144C19.0786 11.7411 19.0945 11.7674 19.1095 11.795C19.0941 11.8105 19.0786 11.8259 19.0645 11.8414" fill="#E6F5EC"/>
<path fill-rule="evenodd" clip-rule="evenodd" d="M18.3422 11.5625C18.3272 11.577 18.3127 11.592 18.2953 11.6066C18.2756 11.5925 18.2484 11.5827 18.2358 11.5625C18.2119 11.517 18.1434 11.4566 18.2227 11.4209C18.2892 11.3891 18.2892 11.4739 18.3108 11.5152C18.3197 11.5325 18.3309 11.547 18.3422 11.5625Z" fill="#29AA59"/>
<path fill-rule="evenodd" clip-rule="evenodd" d="M13.3805 9.72971C13.4489 9.75642 13.4128 9.81361 13.4138 9.85627C13.4175 9.91486 13.4381 9.93455 13.493 9.91392C13.3786 10.0245 13.3931 9.87689 13.3491 9.84408C13.3608 9.80517 13.3697 9.76721 13.3805 9.72971" fill="#DDF1E4"/>
<path fill-rule="evenodd" clip-rule="evenodd" d="M13.1531 9.80469V9.65375C13.2178 9.67437 13.2197 9.71984 13.2131 9.76953C13.1934 9.78125 13.1728 9.7925 13.1531 9.80469Z" fill="#6FC690"/>
<path fill-rule="evenodd" clip-rule="evenodd" d="M11.985 9.65002C11.9916 9.58158 11.9588 9.49252 12.0755 9.50002C12.1608 9.50517 12.2227 9.53939 12.2273 9.63689C12.232 9.74189 12.1706 9.78455 12.0736 9.79158C11.9503 9.80142 12.0005 9.70439 11.985 9.65002" fill="#F5FBF7"/>
<path fill-rule="evenodd" clip-rule="evenodd" d="M17.3906 10.6813C17.4394 10.708 17.5139 10.7131 17.5298 10.7853C17.5378 10.8228 17.5055 10.8477 17.4722 10.8369C17.4103 10.8181 17.3283 10.8172 17.3198 10.73C17.3175 10.7047 17.3447 10.6728 17.3906 10.6813Z" fill="#EFF8F3"/>
<path fill-rule="evenodd" clip-rule="evenodd" d="M15.8705 10.1047C15.8578 10.1535 15.8236 10.1703 15.7842 10.1558C15.7313 10.1366 15.6459 10.1577 15.645 10.0649C15.6431 10.0166 15.6759 10.002 15.72 10.0166C15.7781 10.0353 15.8484 10.033 15.8705 10.1047Z" fill="#DEF2E5"/>
<path fill-rule="evenodd" clip-rule="evenodd" d="M11.4914 9.52765C11.5373 9.53327 11.61 9.5089 11.6053 9.58718C11.6006 9.65562 11.5313 9.64484 11.4816 9.64577C11.4417 9.64718 11.3845 9.66781 11.3808 9.59609C11.378 9.51077 11.4445 9.53749 11.4914 9.52765" fill="#F3FAF5"/>
<path fill-rule="evenodd" clip-rule="evenodd" d="M10.8984 9.59283C10.9833 9.59846 11.0255 9.64908 11.0288 9.72877C11.0334 9.80002 10.9983 9.86096 10.9252 9.86752C10.8408 9.87549 10.8028 9.81127 10.7981 9.73299C10.7934 9.6608 10.8216 9.6083 10.8984 9.59283" fill="#F3FAF6"/>
<path fill-rule="evenodd" clip-rule="evenodd" d="M19.5305 12.1227C19.5183 12.2005 19.4714 12.2553 19.3809 12.2553C19.3083 12.2544 19.2811 12.2014 19.2886 12.1372C19.2956 12.05 19.3477 11.9938 19.4363 11.9952C19.5061 11.997 19.5333 12.0472 19.5305 12.1227" fill="#F9FCFA"/>
<path fill-rule="evenodd" clip-rule="evenodd" d="M15.1313 9.85064C15.1786 9.87971 15.2738 9.84971 15.2873 9.94346C15.2916 9.97908 15.2522 9.99736 15.2208 9.99033C15.1594 9.97674 15.0736 9.99877 15.0661 9.89986C15.0647 9.86939 15.0783 9.83658 15.1313 9.85064Z" fill="#E7F5EC"/>
<path fill-rule="evenodd" clip-rule="evenodd" d="M16.4156 10.3611C16.4067 10.4422 16.3669 10.4989 16.2848 10.4989C16.2042 10.4998 16.1756 10.4436 16.1794 10.3695C16.1859 10.288 16.2323 10.2336 16.3116 10.2303C16.3903 10.2275 16.4156 10.2903 16.4156 10.3611" fill="#F5FBF7"/>
</svg>
